# xmcd CD database file
#
# Track frame offsets:
#	150
#	36687
#	59643
#	88715
#	107110
#	121450
#	141245
#
# Disc length: 2281 seconds
#
# Revision: 2
# Processed by: cddbd v1.5.2PL0 Copyright (c) Steve Scherf et al.
# Submitted via: CDex 1.70beta2
#
DISCID=6c08e707
DTITLE=Peter Thorup With Friends - Wake Up Your Mind
DYEAR=1970
DGENRE=Blues
TTITLE0=Worried Blues
TTITLE1=Coming Home Baby
TTITLE2=Keep It Up
TTITLE3=Running Wild
TTITLE4=I'm Coming Home
TTITLE5=Grandmother, Watch Your Son
TTITLE6=Wake Up Your Mind
EXTD=YEAR: 1970
EXTT0=
EXTT1=
EXTT2=
EXTT3=
EXTT4=
EXTT5=
EXTT6=
PLAYORDER=
